<svg width="141" height="50" viewBox="0 0 141 50" fill="none" xmlns="http://www.w3.org/2000/svg">
<mask id="mask0_27_306" style="mask-type:luminance" maskUnits="userSpaceOnUse" x="24" y="13" width="93" height="24">
<path d="M116.789 13.5722H24.7109V36.4285H116.789V13.5722Z" fill="white"/>
</mask>
<g mask="url(#mask0_27_306)">
<path d="M34.3419 20.3786H38.2768V26.281C38.3424 28.642 39.2605 30.0192 41.1624 30.0192C42.9987 30.0192 43.4578 28.7075 43.4578 26.281V20.3786H47.9174V26.5433C47.8519 31.7243 44.7039 33.7574 41.0969 33.7574C39.2605 33.7574 37.5554 33.2327 36.2438 31.9867C34.9246 33.1966 33.1791 33.8335 31.3906 33.7574C27.7836 33.7574 24.6357 31.7243 24.5701 26.5433V20.3786H29.0297V26.281C29.0953 28.642 29.4888 30.0192 31.3906 30.0192C33.227 30.0192 34.2107 28.7075 34.2763 26.281V20.3786M54.6068 26.5433C54.6068 24.707 55.0659 22.5428 57.099 22.5428C59.132 22.5428 59.5911 24.707 59.5911 26.5433C59.5911 28.3796 59.132 30.5438 57.099 30.5438C55.0003 30.5438 54.6068 28.3796 54.6068 26.5433ZM57.0334 19.7227C53.0329 19.7227 49.6226 21.8214 49.6226 26.5433C49.6226 31.3308 53.0329 33.3639 57.0334 33.3639C61.0339 33.3639 64.4442 31.2653 64.4442 26.5433C64.5098 21.8214 61.0339 19.7227 57.0334 19.7227ZM71.0025 20.1162H66.0838C66.2149 21.4935 66.2149 22.2805 66.2149 23.4609V33.036H71.068V27.855C71.0025 25.3628 71.855 23.8544 74.3472 23.8544H75.3965V19.7227C73.2323 19.6572 71.6583 20.3786 71.1336 22.5428H71.068L71.0025 20.1162ZM77.1672 19.9851V23.0674H79.6594V31.7899C79.397 35.7249 81.3645 36.1839 84.6436 36.1839C85.365 36.1839 86.152 36.1184 87.2669 35.9216V33.036L85.4306 33.1016C84.3157 33.1016 84.5125 31.462 84.5125 31.0685V23.0674H87.3325V19.9851H84.5125V15.132L79.6594 16.9683V19.9851H77.1672ZM101.367 27.5271C101.367 22.7395 99.7276 19.7227 94.5466 19.7227C90.6772 19.7227 87.6604 22.0181 87.6604 26.1498C87.6604 31.1997 89.6935 33.4295 94.8089 33.4295C96.3173 33.4295 97.7601 33.1671 98.875 32.4457C99.546 32.0918 100.119 31.5771 100.542 30.9477C100.966 30.3182 101.227 29.5936 101.302 28.8387H96.842C96.6452 30.0192 95.7926 30.675 94.481 30.675C92.6447 30.675 92.2512 29.2322 92.2512 27.5926H101.367V27.5271ZM92.3168 24.9038C92.4479 23.4609 92.8414 22.2149 94.5466 22.1493C95.268 22.0837 95.8582 22.4116 96.2517 23.0019C96.6452 23.5265 96.842 24.2479 96.842 24.9038H92.3168ZM109.565 33.5606C108.647 33.6918 108.057 33.6918 107.138 33.6918C105.696 33.6918 103.99 32.8392 103.663 31.2653C103.335 29.6257 103.466 27.9205 103.466 26.2154V15.7222L107.925 13.8203V29.2322C107.925 30.2159 108.45 30.8062 109.631 30.5438V33.5606M116.779 33.5606C115.861 33.6918 115.271 33.6918 114.352 33.6918C112.844 33.6918 111.205 32.8392 110.877 31.2653C110.549 29.6257 110.614 27.9205 110.614 26.2154V15.7222L115.074 13.8203V29.2322C115.074 30.2159 115.599 30.8062 116.779 30.5438V33.5606Z" fill="#4DD275"/>
</g>
</svg>
