<svg width="140" height="50" viewBox="0 0 140 50" fill="none" xmlns="http://www.w3.org/2000/svg">
<path fill-rule="evenodd" clip-rule="evenodd" d="M42.5564 18.0382C40.9855 18.215 39.5193 19.2704 39.0875 20.5352C38.8653 21.1858 38.8383 22.3625 39.0297 23.0506C39.1176 23.3664 39.3957 23.7573 39.8513 24.2056C40.4169 24.762 40.9242 25.0731 42.6863 25.9436C44.9592 27.0665 45.2113 27.2727 45.3123 28.0914C45.3898 28.7188 45.0297 29.318 44.3687 29.6621C43.9007 29.9057 43.6927 29.9367 42.794 29.8971C41.5672 29.8428 40.7097 29.5437 39.5415 28.7619C39.1015 28.4675 38.7214 28.2265 38.6968 28.2265C38.672 28.2265 38.6519 28.7999 38.6519 29.5006V30.7747L39.2915 31.1438C40.4336 31.8028 41.4677 32.0569 42.9767 32.0491C44.0707 32.0435 44.4454 31.9916 45.0175 31.7668C46.7259 31.0953 47.694 29.7575 47.694 28.0684C47.694 26.1003 46.9224 25.2437 43.8904 23.8462C41.9987 22.9743 41.593 22.7054 41.3718 22.1768C41.011 21.3152 41.5236 20.4825 42.5967 20.187C43.6347 19.9011 45.4035 20.4723 46.5216 21.4544L47.0578 21.9255V20.5752V19.2249L46.492 18.8667C45.3968 18.1737 43.9885 17.8771 42.5564 18.0382ZM54.8797 18.2038C53.697 18.5215 52.8843 19.0024 51.9183 19.9566C50.7852 21.0757 50.1859 22.2171 49.8915 23.8173C49.5385 25.7354 49.9365 27.5335 51.0975 29.2657C52.3405 31.1203 54.2315 32.1188 56.4943 32.1154C58.3361 32.1127 59.691 31.5486 61.0117 30.2348C61.9642 29.2871 62.6312 28.1481 62.9455 26.9325C63.1898 25.9876 63.1939 24.2397 62.9541 23.298C62.3192 20.8059 60.4059 18.8058 58.0778 18.2006C57.1957 17.9714 55.7396 17.9728 54.8797 18.2038ZM70.6452 18.1497C67.8018 18.8159 65.5682 21.8809 65.5772 25.104C65.5863 28.3262 67.8153 31.3233 70.6952 31.9857C72.5853 32.4203 74.7201 31.8578 76.1997 30.5353L76.8389 29.9639L76.5195 29.5511C76.3438 29.3241 76.009 28.92 75.7755 28.6533L75.3509 28.1681L74.7787 28.6945C73.9205 29.4838 73.2597 29.7422 72.0927 29.7444C71.2721 29.746 71.0096 29.6929 70.4308 29.4094C69.1334 28.7735 68.2783 27.5168 68.0017 25.8396C67.6542 23.7314 68.674 21.583 70.4308 20.7219C71.0096 20.4384 71.2721 20.3854 72.0927 20.387C73.2487 20.3892 73.9206 20.6475 74.747 21.4077C75.0442 21.6811 75.3162 21.9048 75.3513 21.9048C75.3865 21.9048 75.7356 21.514 76.1273 21.0363L76.8394 20.1678L76.1715 19.5699C75.451 18.9247 74.3617 18.3462 73.4903 18.1457C72.8334 17.9947 71.2978 17.9969 70.6452 18.1497ZM79.9799 25.0961L80.0113 31.9345L81.26 31.9691L82.5087 32.0038V25.1307V18.2577H81.2286H79.9483L79.9799 25.0961ZM86.0711 25.0961L86.1025 31.9345L90.3359 31.9665L94.5693 31.9984V30.9027V29.807H91.5846H88.5999V27.9226V26.0383H91.341H94.082V24.9441V23.85H91.341H88.5999V22.0872V20.3244H91.5846H94.5693V19.291V18.2577H90.3045H86.0395L86.0711 25.0961ZM97.2494 19.291V20.3244H99.4411H101.633L101.664 26.1294L101.696 31.9345L102.945 31.9691L104.193 32.0038V26.1641V20.3244H106.386H108.579V19.291V18.2577H102.914H97.2494V19.291ZM111.137 18.3231C111.137 18.3591 112.247 20.014 113.604 22.0006L116.071 25.6128L116.132 28.7736L116.193 31.9345L117.442 31.9691L118.691 32.0038V28.9197V25.8357L121.198 22.1379C122.577 20.1041 123.732 18.3989 123.764 18.3488C123.795 18.2986 123.174 18.2597 122.383 18.2622L120.944 18.2667L119.443 20.4906C118.617 21.7137 117.818 22.8684 117.667 23.0566L117.394 23.3987L115.575 20.83L113.757 18.2612L112.447 18.2594C111.727 18.2584 111.137 18.2871 111.137 18.3231ZM55.3767 20.493C54.1206 20.9038 53.2232 21.6912 52.6924 22.8485C51.2675 25.9545 53.0756 29.5578 56.1689 29.7763C57.1536 29.8459 57.7433 29.701 58.6269 29.1721C60.6957 27.9339 61.3777 24.7322 60.0531 22.4764C59.65 21.7901 58.7508 20.9714 58.07 20.6709C57.3657 20.36 56.0492 20.273 55.3767 20.493Z" fill="black"/>
<path fill-rule="evenodd" clip-rule="evenodd" d="M16.2352 24.9999V35.8816H23.8498H31.4646L31.4334 25.0313L31.4023 14.181L23.8188 14.1497L16.2352 14.1184V24.9999ZM18.428 25.0629V33.8174L23.8188 33.7857L29.2095 33.7541L29.2408 25.0313L29.272 16.3085H23.8501H18.428V25.0629Z" fill="#FFCC08"/>
</svg>
